<svg width="380" height="380" viewBox="0 0 380 380" fill="none" xmlns="http://www.w3.org/2000/svg">
<g clip-path="url(#clip0_4034_919)">
<circle cx="190" cy="190" r="190" fill="white"/>
<path fill-rule="evenodd" clip-rule="evenodd" d="M380 190C380 294.934 294.934 380 190 380C85.0659 380 0 294.934 0 190C0 85.0659 85.0659 0 190 0C294.934 0 380 85.0659 380 190ZM241.882 340.35C238.788 346.993 231.986 350.813 224.82 352.342C213.592 354.739 201.943 356 190 356C178.057 356 166.408 354.739 155.18 352.342C148.014 350.813 141.212 346.993 138.118 340.35C137.256 338.498 136.574 336.644 136.047 334.842C134.199 328.526 136.177 321.931 139.289 316.132L139.313 316.087C139.839 315.106 140.807 314.459 141.882 314.171C143.785 313.661 145.569 312.782 147.131 311.583C148.694 310.383 150.005 308.888 150.99 307.182C151.975 305.476 152.615 303.593 152.872 301.64C153.129 299.687 152.999 297.703 152.489 295.8C152.367 295.344 152.223 294.895 152.06 294.455C151.777 293.694 151.785 292.844 152.169 292.129C155.928 285.123 156.942 276.967 155.014 269.254L151.046 253.383C150.62 251.679 151.12 249.876 152.361 248.634L164.704 236.292C169.501 231.495 174.056 226.47 178.355 221.237C179.565 219.764 182 220.607 182 222.513V251.682C182 253.787 181.446 255.5 180.394 257.323L168.047 278.725L168.024 278.766C166.205 282.006 166 285.021 166 287.297V311.682C166 314.444 163.761 316.682 161 316.682C154.925 316.682 150 321.607 150 327.682C150 333.757 154.925 338.682 161 338.682C164.724 338.682 168.016 336.832 170.006 334C170.74 332.955 171.766 332.121 172.976 331.712C174.392 331.233 175.804 330.523 177.103 329.473C181.184 326.17 182 321.407 182 317.682V287.297C182 286.776 182.163 286.275 182.423 285.824L185.669 280.198C187.593 276.863 192.407 276.863 194.331 280.198L197.577 285.824C197.837 286.275 198 286.776 198 287.297V317.682C198 321.407 198.816 326.17 202.897 329.473C204.196 330.523 205.608 331.233 207.024 331.712C208.234 332.121 209.26 332.955 209.994 334C211.984 336.832 215.276 338.682 219 338.682C225.075 338.682 230 333.757 230 327.682C230 321.607 225.075 316.682 219 316.682C216.239 316.682 214 314.444 214 311.682V287.297C214 285.021 213.795 282.006 211.976 278.766L211.953 278.725L199.606 257.323C198.554 255.5 198 253.787 198 251.682V222.513C198 220.607 200.435 219.764 201.645 221.237C205.944 226.47 210.499 231.495 215.296 236.292L227.639 248.634C228.88 249.876 229.38 251.679 228.954 253.383L224.986 269.254C223.058 276.967 224.072 285.123 227.831 292.129C228.215 292.844 228.223 293.694 227.94 294.455C227.777 294.895 227.633 295.344 227.511 295.8C227.001 297.703 226.871 299.687 227.128 301.64C227.385 303.593 228.025 305.476 229.01 307.182C229.995 308.888 231.306 310.383 232.869 311.583C234.431 312.782 236.215 313.661 238.118 314.171C239.193 314.459 240.161 315.106 240.687 316.087L240.711 316.132C243.823 321.931 245.801 328.526 243.953 334.842C243.426 336.644 242.744 338.498 241.882 340.35ZM264.323 323.505C272.133 330.305 283.799 327.368 291.965 321.002C297.948 316.339 303.603 311.275 308.89 305.85C314.286 300.313 317.917 292.854 316.226 285.309C314.819 279.028 311.933 273.581 309.171 269.755C307.671 267.676 305.584 266.128 303.321 264.923L302.543 264.509C302.378 264.421 302.178 264.44 302.03 264.554C300.551 265.689 298.863 266.521 297.063 267.003C295.262 267.486 293.384 267.609 291.536 267.366C289.688 267.122 287.906 266.517 286.292 265.585C284.678 264.653 283.263 263.413 282.128 261.934C280.994 260.455 280.161 258.767 279.679 256.967C279.482 256.234 279.346 255.487 279.269 254.736C279.106 253.145 278.33 251.616 276.918 250.864L270.884 247.652C270.306 247.343 269.66 247.182 269.004 247.182H253.642C251.86 247.182 250.968 249.337 252.228 250.596L275.895 274.264C276.808 275.176 278.044 275.663 279.319 275.86C286.502 276.975 292 283.187 292 290.682C292 298.966 285.284 305.682 277 305.682C268.716 305.682 262 298.966 262 290.682C262 289.415 262.157 288.185 262.453 287.01C262.862 285.383 262.595 283.591 261.408 282.404L245.332 266.328C244.233 265.229 242.355 265.749 241.977 267.257L240.885 271.626C239.679 276.451 240.314 281.551 242.665 285.933L259.549 317.4C260.252 319.054 261.794 321.304 264.323 323.505ZM349.022 237.774C347.534 242.736 344.985 247.433 340.918 250.642C330.477 258.884 321.162 257.092 316.091 253.958C315.56 253.439 314.948 252.987 314.26 252.621C313.365 252.144 312.947 251.107 313.096 250.104C313.106 250.034 313.116 249.964 313.125 249.894C313.344 248.23 313.234 246.54 312.799 244.919C312.365 243.298 311.616 241.778 310.594 240.447C309.572 239.116 308.299 237.999 306.845 237.16C305.392 236.32 303.788 235.776 302.124 235.557C300.46 235.338 298.77 235.449 297.149 235.883C295.528 236.317 294.008 237.067 292.677 238.088C291.369 239.092 289.598 239.489 288.143 238.714L283.334 236.154C282.447 235.682 282 234.686 282 233.682C282 228.712 277.971 224.682 273 224.682C269.966 224.682 267.282 226.184 265.652 228.484C264.622 229.938 263.125 231.182 261.343 231.182H241.098C235.794 231.182 230.707 229.075 226.956 225.324L226.61 224.978C219.849 218.217 213.163 210.491 207.345 202.656C205.901 200.712 207.312 198 209.734 198H259.493C262.246 198 264.39 198.722 266.41 200.284L287.043 216.962L287.085 216.994C292.12 220.915 297.924 222.682 304 222.682H314C316.431 222.682 318 224.442 318 226.432C318 230.85 321.582 234.432 326 234.432C330.418 234.432 334 230.85 334 226.432C334 215.168 324.824 206.682 314 206.682H304C301.19 206.682 298.932 205.928 296.951 204.398L284.494 193.81C282.145 191.813 282.145 188.187 284.494 186.19L296.951 175.602C298.932 174.072 301.19 173.318 304 173.318H314C324.824 173.318 334 164.832 334 153.568C334 149.15 330.418 145.568 326 145.568C321.582 145.568 318 149.15 318 153.568C318 155.558 316.431 157.318 314 157.318H304C297.924 157.318 292.12 159.085 287.085 163.006L287.043 163.038L266.41 179.716C264.39 181.278 262.246 182 259.493 182H209.734C207.312 182 205.901 179.288 207.345 177.344C213.163 169.509 219.849 161.783 226.61 155.022L226.956 154.676C230.707 150.925 235.794 148.818 241.098 148.818H261.343C263.125 148.818 264.622 150.062 265.652 151.516C267.282 153.816 269.966 155.318 273 155.318C277.971 155.318 282 151.288 282 146.318C282 145.314 282.447 144.318 283.334 143.846L288.143 141.286C289.598 140.511 291.369 140.908 292.677 141.912C294.008 142.933 295.528 143.683 297.149 144.117C298.77 144.551 300.46 144.662 302.124 144.443C303.788 144.224 305.392 143.68 306.845 142.84C308.299 142.001 309.572 140.884 310.594 139.553C311.616 138.222 312.365 136.702 312.799 135.081C313.234 133.46 313.344 131.77 313.125 130.106C313.116 130.036 313.106 129.966 313.096 129.896C312.947 128.893 313.365 127.856 314.26 127.379C314.948 127.013 315.56 126.561 316.091 126.042C321.162 122.908 330.477 121.116 340.918 129.358C344.985 132.567 347.534 137.264 349.022 142.226C353.561 157.355 356 173.393 356 190C356 206.607 353.561 222.645 349.022 237.774ZM316.226 94.6911C317.917 87.1465 314.286 79.6867 308.89 74.1497C303.603 68.7252 297.948 63.6611 291.966 58.9979C283.799 52.6322 272.133 49.6952 264.323 56.4945C261.794 58.6965 260.252 60.9462 259.549 62.6003L242.665 94.0667C240.314 98.4487 239.679 103.549 240.885 108.374L241.977 112.743C242.355 114.251 244.233 114.771 245.332 113.672L261.408 97.5958C262.595 96.409 262.862 94.6174 262.453 92.9898C262.157 91.8147 262 90.5846 262 89.3178C262 81.0335 268.716 74.3178 277 74.3178C285.284 74.3178 292 81.0335 292 89.3178C292 96.8132 286.502 103.025 279.319 104.14C278.044 104.337 276.808 104.824 275.895 105.736L252.228 129.404C250.968 130.663 251.86 132.818 253.642 132.818H269.004C269.66 132.818 270.306 132.657 270.884 132.348L276.918 129.136C278.33 128.384 279.106 126.855 279.269 125.264C279.346 124.513 279.482 123.766 279.679 123.033C280.161 121.233 280.994 119.545 282.128 118.066C283.263 116.587 284.678 115.347 286.292 114.415C287.906 113.483 289.688 112.878 291.536 112.634C293.384 112.391 295.262 112.514 297.063 112.997C298.863 113.479 300.551 114.311 302.03 115.446C302.178 115.56 302.378 115.579 302.543 115.491L303.321 115.077C305.584 113.872 307.671 112.324 309.172 110.245C311.933 106.419 314.819 100.972 316.226 94.6911ZM224.82 27.6578C231.986 29.1875 238.788 33.0073 241.882 39.6504C242.744 41.5023 243.426 43.3564 243.953 45.1582C245.801 51.4743 243.823 58.0691 240.711 63.868L240.687 63.9132C240.161 64.8939 239.193 65.5408 238.118 65.8289C236.215 66.3387 234.431 67.2183 232.869 68.4175C231.306 69.6166 229.995 71.1118 229.01 72.8178C228.025 74.5237 227.385 76.4069 227.128 78.3599C226.871 80.3128 227.001 82.2973 227.511 84.2C227.633 84.6557 227.777 85.1046 227.94 85.5452C228.223 86.306 228.215 87.1561 227.831 87.8713C224.072 94.8774 223.058 103.033 224.986 110.746L228.954 126.617C229.38 128.321 228.88 130.124 227.639 131.366L215.296 143.708C210.499 148.505 205.944 153.53 201.645 158.763C200.435 160.236 198 159.393 198 157.487V128.318C198 126.213 198.554 124.5 199.606 122.677L211.953 101.275L211.976 101.234C213.795 97.9938 214 94.9792 214 92.7027V68.3178C214 65.5564 216.239 63.3178 219 63.3178C225.075 63.3178 230 58.3929 230 52.3178C230 46.2426 225.075 41.3178 219 41.3178C215.276 41.3178 211.984 43.1683 209.994 45.9999C209.26 47.0447 208.234 47.8792 207.024 48.2881C205.608 48.7666 204.196 49.4767 202.897 50.5275C198.816 53.8298 198 58.5933 198 62.3178V92.7027C198 93.2237 197.837 93.725 197.576 94.1763L194.331 99.802C192.407 103.137 187.593 103.137 185.669 99.802L182.424 94.1763C182.163 93.725 182 93.2237 182 92.7027V62.3178C182 58.5933 181.184 53.8298 177.103 50.5275C175.804 49.4767 174.392 48.7666 172.976 48.2881C171.766 47.8792 170.74 47.0447 170.006 45.9999C168.016 43.1683 164.724 41.3178 161 41.3178C154.925 41.3178 150 46.2426 150 52.3178C150 58.3929 154.925 63.3178 161 63.3178C163.761 63.3178 166 65.5564 166 68.3178V92.7027C166 94.9792 166.205 97.9938 168.024 101.234L168.047 101.275L180.394 122.677C181.446 124.5 182 126.213 182 128.318V157.487C182 159.393 179.565 160.236 178.355 158.763C174.056 153.53 169.501 148.505 164.704 143.708L152.361 131.366C151.12 130.124 150.62 128.321 151.046 126.617L155.014 110.746C156.942 103.033 155.928 94.8774 152.169 87.8713C151.785 87.1561 151.777 86.306 152.06 85.5452C152.223 85.1046 152.367 84.6557 152.489 84.2C152.999 82.2973 153.129 80.3128 152.872 78.3599C152.615 76.4069 151.975 74.5237 150.99 72.8178C150.005 71.1118 148.694 69.6166 147.131 68.4175C145.569 67.2183 143.785 66.3387 141.882 65.8289C140.807 65.5408 139.839 64.8939 139.313 63.9132L139.289 63.868C136.177 58.0691 134.199 51.4743 136.047 45.1582C136.574 43.3564 137.256 41.5023 138.118 39.6504C141.212 33.0073 148.014 29.1875 155.18 27.6578C166.408 25.2613 178.057 24 190 24C201.943 24 213.592 25.2613 224.82 27.6578ZM115.677 56.4945C107.867 49.6952 96.2013 52.6322 88.0345 58.9979C82.0519 63.6611 76.3971 68.7252 71.1104 74.1497C65.714 79.6868 62.0832 87.1465 63.7735 94.6911C65.1807 100.972 68.0672 106.419 70.8285 110.245C72.3287 112.324 74.4163 113.872 76.6794 115.077L77.4574 115.491C77.622 115.579 77.8225 115.56 77.9704 115.446C79.4492 114.311 81.1369 113.479 82.9374 112.997C84.7378 112.514 86.6156 112.391 88.4637 112.634C90.3116 112.878 92.0936 113.483 93.7079 114.415C95.3221 115.347 96.7369 116.587 97.8716 118.066C99.0063 119.545 99.8387 121.233 100.321 123.033C100.518 123.766 100.654 124.513 100.731 125.264C100.894 126.855 101.67 128.384 103.082 129.136L109.116 132.348C109.694 132.657 110.34 132.818 110.996 132.818H126.358C128.14 132.818 129.032 130.663 127.772 129.404L104.105 105.736C103.192 104.824 101.956 104.337 100.681 104.14C93.4977 103.025 88 96.8132 88 89.3178C88 81.0335 94.7157 74.3178 103 74.3178C111.284 74.3178 118 81.0335 118 89.3178C118 90.5846 117.843 91.8147 117.547 92.9898C117.138 94.6174 117.405 96.409 118.592 97.5958L134.668 113.672C135.767 114.771 137.645 114.251 138.023 112.743L139.115 108.374C140.321 103.549 139.686 98.4487 137.335 94.0667L120.451 62.6003C119.748 60.9462 118.206 58.6965 115.677 56.4945ZM39.0816 129.358C35.0152 132.567 32.4662 137.264 30.9776 142.226C26.4387 157.355 24 173.393 24 190C24 206.607 26.4387 222.645 30.9776 237.774C32.4662 242.736 35.0152 247.433 39.0816 250.642C49.5231 258.884 58.838 257.092 63.9088 253.958C64.4397 253.439 65.0522 252.987 65.7401 252.621C66.6349 252.144 67.0531 251.107 66.9041 250.104C66.8937 250.034 66.8839 249.964 66.8746 249.894C66.6556 248.23 66.7664 246.54 67.2007 244.919C67.6351 243.298 68.3844 241.778 69.406 240.447C70.4276 239.116 71.7014 237.999 73.1547 237.16C74.6079 236.32 76.2123 235.776 77.876 235.557C79.5398 235.338 81.2304 235.449 82.8513 235.883C84.4723 236.317 85.9918 237.067 87.3232 238.088C88.6309 239.092 90.4023 239.489 91.8573 238.714L96.6664 236.154C97.5527 235.682 98 234.686 98 233.682C98 228.712 102.029 224.682 107 224.682C110.034 224.682 112.718 226.184 114.348 228.484C115.378 229.938 116.875 231.182 118.657 231.182H138.902C144.206 231.182 149.293 229.075 153.044 225.324L153.39 224.978C160.151 218.217 166.837 210.491 172.655 202.656C174.099 200.712 172.688 198 170.266 198H120.507C117.754 198 115.61 198.722 113.59 200.284L92.9565 216.962L92.9151 216.994C87.8797 220.915 82.0759 222.682 76 222.682H66C63.569 222.682 62 224.442 62 226.432C62 230.85 58.4183 234.432 54 234.432C49.5817 234.432 46 230.85 46 226.432C46 215.168 55.1761 206.682 66 206.682H76C78.8098 206.682 81.0685 205.928 83.0488 204.398L95.5057 193.81C97.8547 191.813 97.8547 188.187 95.5057 186.19L83.0488 175.602C81.0685 174.072 78.8098 173.318 76 173.318H66C55.1761 173.318 46 164.832 46 153.568C46 149.15 49.5817 145.568 54 145.568C58.4183 145.568 62 149.15 62 153.568C62 155.558 63.569 157.318 66 157.318H76C82.0759 157.318 87.8797 159.085 92.9151 163.006L92.9565 163.038L113.59 179.716C115.61 181.278 117.754 182 120.507 182H170.266C172.688 182 174.099 179.288 172.655 177.344C166.837 169.509 160.151 161.783 153.39 155.022L153.044 154.676C149.293 150.925 144.206 148.818 138.902 148.818H118.657C116.875 148.818 115.378 150.062 114.348 151.516C112.718 153.816 110.034 155.318 107 155.318C102.029 155.318 98 151.288 98 146.318C98 145.314 97.5527 144.318 96.6664 143.846L91.8573 141.286C90.4023 140.511 88.6309 140.908 87.3232 141.912C85.9918 142.933 84.4723 143.683 82.8513 144.117C81.2304 144.551 79.5398 144.662 77.876 144.443C76.2123 144.224 74.6079 143.68 73.1547 142.84C71.7014 142.001 70.4276 140.884 69.406 139.553C68.3844 138.222 67.6351 136.702 67.2007 135.081C66.7664 133.46 66.6556 131.77 66.8746 130.106C66.8839 130.036 66.8937 129.966 66.9041 129.896C67.0531 128.893 66.6349 127.856 65.7401 127.379C65.0522 127.013 64.4397 126.561 63.9088 126.042C58.838 122.908 49.5231 121.116 39.0816 129.358ZM63.7735 285.309C62.0832 292.854 65.714 300.313 71.1104 305.85C76.3971 311.275 82.0519 316.339 88.0345 321.002C96.2013 327.368 107.867 330.305 115.677 323.506C118.206 321.304 119.748 319.054 120.451 317.4L137.335 285.933C139.686 281.551 140.321 276.451 139.115 271.626L138.023 267.257C137.645 265.749 135.767 265.229 134.668 266.328L118.592 282.404C117.405 283.591 117.138 285.383 117.547 287.01C117.843 288.185 118 289.415 118 290.682C118 298.966 111.284 305.682 103 305.682C94.7157 305.682 88 298.966 88 290.682C88 283.187 93.4977 276.975 100.681 275.86C101.956 275.663 103.192 275.176 104.105 274.264L127.772 250.596C129.032 249.337 128.14 247.182 126.358 247.182H110.996C110.34 247.182 109.694 247.343 109.116 247.652L103.082 250.864C101.67 251.616 100.894 253.145 100.731 254.736C100.654 255.487 100.518 256.234 100.321 256.967C99.8387 258.767 99.0063 260.455 97.8716 261.934C96.7369 263.413 95.3221 264.653 93.7079 265.585C92.0936 266.517 90.3116 267.122 88.4637 267.366C86.6156 267.609 84.7378 267.486 82.9374 267.003C81.1369 266.521 79.4492 265.689 77.9704 264.554C77.8225 264.44 77.622 264.421 77.4574 264.509L76.6792 264.923C74.4163 266.128 72.3288 267.676 70.8286 269.755C68.0673 273.581 65.1807 279.028 63.7735 285.309Z" fill="url(#paint0_linear_4034_919)"/>
<path d="M46 188.612C46 186.178 48.156 184.308 50.5657 184.652L72.2828 187.755C73.2681 187.895 74 188.739 74 189.735V190.265C74 191.261 73.2681 192.105 72.2828 192.245L50.5657 195.348C48.1559 195.692 46 193.822 46 191.388V188.612Z" fill="url(#paint1_linear_4034_919)"/>
<path d="M334 191.388C334 193.822 331.844 195.692 329.434 195.348L307.717 192.245C306.732 192.105 306 191.261 306 190.265V189.735C306 188.739 306.732 187.895 307.717 187.755L329.434 184.652C331.844 184.308 334 186.178 334 188.612V191.388Z" fill="url(#paint2_linear_4034_919)"/>
<circle cx="190" cy="190" r="12" fill="#21E0F3"/>
<circle cx="103" cy="89" r="6" fill="#21E0F3"/>
<circle cx="103" cy="291" r="6" fill="#21E0F3"/>
<circle cx="277" cy="89" r="6" fill="#21E0F3"/>
<circle cx="277" cy="291" r="6" fill="#21E0F3"/>
</g>
<defs>
<linearGradient id="paint0_linear_4034_919" x1="190" y1="-15" x2="185.5" y2="435.5" gradientUnits="userSpaceOnUse">
<stop stop-color="#1A3896"/>
<stop offset="1" stop-color="#0A85B4"/>
</linearGradient>
<linearGradient id="paint1_linear_4034_919" x1="190" y1="-15" x2="185.5" y2="435.5" gradientUnits="userSpaceOnUse">
<stop stop-color="#1A3896"/>
<stop offset="1" stop-color="#0A85B4"/>
</linearGradient>
<linearGradient id="paint2_linear_4034_919" x1="190" y1="-15" x2="185.5" y2="435.5" gradientUnits="userSpaceOnUse">
<stop stop-color="#1A3896"/>
<stop offset="1" stop-color="#0A85B4"/>
</linearGradient>
<clipPath id="clip0_4034_919">
<rect width="380" height="380" fill="white"/>
</clipPath>
</defs>
</svg>
